<?xml version="1.0" encoding="utf-8"?>
<!-- Generator: Adobe Illustrator 27.6.1, SVG Export Plug-In . SVG Version: 6.00 Build 0)  -->
<svg version="1.1" xmlns="http://www.w3.org/2000/svg" xmlns:xlink="http://www.w3.org/1999/xlink" x="0px" y="0px"
	 viewBox="0 0 274.05 55.29" style="enable-background:new 0 0 274.05 55.29;" xml:space="preserve">
<style type="text/css">
	.st0{fill:#ABCD03;}
</style>
<g id="レイヤー_1">
	<g>
		<g>
			<path class="st0" d="M0,0l18.38,18.58L36.77,0v42.24h-7.64V16.67L18.38,27.81L7.64,16.67v25.57H0V0z"/>
			<path class="st0" d="M70.51,38.35h-0.13c-2.17,2.9-6.13,4.74-10.48,4.74c-10.48,0-16.54-8.57-16.54-16.8
				c0-7.84,6.52-16.8,16.87-16.8c4.74,0,8.37,2.04,10.15,4.74h0.13v-3.89h6.85v31.89h-6.85V38.35z M60.76,36.64
				c5.4,0,10.02-4.61,10.02-10.35c0-5.73-4.61-10.35-10.02-10.35c-5.54,0-10.15,4.61-10.15,10.35
				C50.61,32.03,55.22,36.64,60.76,36.64z"/>
			<path class="st0" d="M82.96,10.35h3.89V1.91L93.71,0v10.35h5.47v6.46h-5.47v12.59c0,3.43,0.79,5.01,2.83,6.19l3.69,2.11
				l-3.03,5.4c-7.05-3.36-10.35-5.8-10.35-12.45V16.8h-3.89V10.35z"/>
			<path class="st0" d="M105.17,0.86h6.85v13.51h0.13c1.91-2.97,5.4-4.88,9.75-4.88c6.72,0,12.39,5.6,12.39,13.51v19.24h-6.85V24.51
				c0-5.8-3.03-8.17-7.58-8.17c-4.41,0-7.84,2.83-7.84,8.04v17.86h-6.85V0.86z"/>
			<path class="st0" d="M142.8,22.27c0-8.1,5.4-12.78,11.66-12.78c4.81,0,8.3,2.31,9.55,5.67h0.13c1.25-3.36,4.74-5.67,9.55-5.67
				c6.26,0,11.66,4.68,11.66,12.78v19.97h-6.85v-19.9c0-3.82-2.44-6-5.27-6c-3.29,0-5.73,1.98-5.73,6.92v18.98h-6.85V23.26
				c0-4.94-2.44-6.92-5.73-6.92c-2.83,0-5.27,2.17-5.27,6v19.9h-6.85V22.27z"/>
			<path class="st0" d="M218.65,38.35h-0.13c-2.17,2.9-6.13,4.74-10.48,4.74c-10.48,0-16.54-8.57-16.54-16.8
				c0-7.84,6.52-16.8,16.87-16.8c4.74,0,8.37,2.04,10.15,4.74h0.13v-3.89h6.85v31.89h-6.85V38.35z M208.89,36.64
				c5.4,0,10.02-4.61,10.02-10.35c0-5.73-4.61-10.35-10.02-10.35c-5.54,0-10.15,4.61-10.15,10.35
				C198.74,32.03,203.36,36.64,208.89,36.64z"/>
			<path class="st0" d="M234.13,10.35h6.85v32.22c0,5.6-2.83,9.42-10.08,12.72l-2.77-5.47c4.74-2.5,6-3.95,6-7.71V10.35z M237.56,0
				c2.11,0,3.82,1.71,3.82,3.82c0,2.11-1.71,3.82-3.82,3.82c-2.11,0-3.82-1.71-3.82-3.82C233.74,1.71,235.45,0,237.56,0z"/>
			<path class="st0" d="M253.17,0c2.11,0,3.82,1.71,3.82,3.82c0,2.11-1.71,3.82-3.82,3.82c-2.11,0-3.82-1.71-3.82-3.82
				C249.35,1.71,251.07,0,253.17,0z M249.75,10.35h6.85v31.89h-6.85V10.35z"/>
		</g>
		<g>
			<path class="st0" d="M268.39,11.38c-3.12,0-5.66-2.54-5.66-5.66s2.54-5.66,5.66-5.66s5.66,2.54,5.66,5.66
				C274.05,8.87,271.48,11.38,268.39,11.38z M263.17,5.72c0,2.88,2.34,5.22,5.22,5.22s5.22-2.34,5.22-5.22
				c0-2.88-2.34-5.22-5.22-5.22C265.48,0.51,263.17,2.87,263.17,5.72z M266.2,2.71c0.48-0.07,1.2-0.13,1.97-0.13
				c2.33,0,2.65,1.08,2.65,1.78c0,0.86-0.58,1.4-1.27,1.57v0.04c0.53,0.14,0.8,0.55,0.96,1.09c0.19,0.72,0.43,1.51,0.6,1.79h-1.32
				c-0.13-0.18-0.24-0.52-0.49-1.46c-0.2-0.82-0.49-1.01-1.2-1.03h-0.66v2.49h-1.24V2.71z M267.44,5.41h0.82
				c0.84,0,1.33-0.37,1.33-0.95c0-0.64-0.49-0.95-1.31-0.95c-0.44,0-0.71,0.04-0.84,0.06V5.41z"/>
		</g>
	</g>
</g>
<g id="レイヤー_2">
	<g>
	</g>
	<g>
	</g>
	<g>
	</g>
	<g>
	</g>
	<g>
	</g>
	<g>
	</g>
	<g>
	</g>
	<g>
	</g>
	<g>
	</g>
	<g>
	</g>
	<g>
	</g>
	<g>
	</g>
	<g>
	</g>
	<g>
	</g>
	<g>
	</g>
</g>
</svg>
