<?xml version="1.0" encoding="utf-8"?>
<!-- Generator: Adobe Illustrator 18.0.0, SVG Export Plug-In . SVG Version: 6.00 Build 0)  -->
<!DOCTYPE svg PUBLIC "-//W3C//DTD SVG 1.1//EN" "http://www.w3.org/Graphics/SVG/1.1/DTD/svg11.dtd">
<svg version="1.1" id="レイヤー_1" xmlns="http://www.w3.org/2000/svg" xmlns:xlink="http://www.w3.org/1999/xlink" x="0px"
	 y="0px" viewBox="140 300 1668.1 512.5" enable-background="new 140 300 1668.1 512.5" xml:space="preserve">
<g>
	<path fill="#0B57A0" d="M407.5,510.4c5.6,2.1,46.8-15.2,46.9-82c0.2-67.8-48.3-87.2-117.5-87.2H153.6v369.1h53.8l71.2,50.8V435.9
		l-68.2-50H337h22V708c64.6,0,108.6-48.4,108.6-109.5C467.5,537.4,435.1,520.7,407.5,510.4z"/>
	<g>
		<path fill="#0B57A0" d="M708.5,652.9h-73.9V384.6c32.5-1.7,55.4-2.6,68.5-2.6c25,0,44.7,6,58.8,17.9c14.2,11.9,21.2,29,21.2,51
			c0,21.3-10.1,38.1-30.4,50.4c30.1,11.6,45,35.5,45,71.9c0,24.4-8.2,43.9-24.9,58.2C756.2,645.8,734.8,652.9,708.5,652.9z
			 M677.4,422.7V487c6.7,0.4,13.5,0.7,20.7,0.7c28,0,41.9-11.6,41.9-34.9c0-20.6-12.6-31-38.1-31
			C695.3,421.8,687.2,422.1,677.4,422.7z M677.4,524.2v88.6c8.7,0.9,15.8,1.3,21.2,1.3c19.2,0,33-3.6,41.6-10.8
			c8.7-7.2,12.9-19.2,12.9-35.9c0-15.3-4-26.4-12.1-33.4c-8.1-7-22-10.4-42-10.4C694.9,523.6,687.6,523.9,677.4,524.2z"/>
		<path fill="#0B57A0" d="M840.3,383.4l41.2-10.9v220.7c0,24.1,6.5,38.6,19.5,43.3c-6.4,13.5-17.3,20.2-32.7,20.2
			c-18.8,0-28-14.5-28-43.3V383.4z"/>
		<path fill="#0B57A0" d="M1046.6,653.1v-16.5c-5.8,5.5-13.9,10.2-24.1,14.1c-10.2,3.8-19.6,5.8-28.3,5.8
			c-41.1,0-61.5-24.1-61.5-72.6V456.5H974v123.9c0,25.1,10.1,37.8,30.5,37.8c9.4,0,18-2.7,26.1-8.1c8-5.4,13.4-11.6,16.1-18.7V456.3
			h41.2v196.4h-41.3V653.1z"/>
		<path fill="#0B57A0" d="M1276,652.9l-17.6-54.4h-83l-16.8,54.4h-47.7l96.3-272.2h18.8l97.2,272.2H1276z M1216.7,462.9l-29,99.1
			h58.1L1216.7,462.9z"/>
		<path fill="#0B57A0" d="M1333.2,703.3l26.1-35.8c14.5,14.6,30.4,22,48.2,22c11.9,0,21.7-2,29.4-5.8c7.7-3.8,11.5-9.2,11.5-16.2
			c0-11.6-8.5-17.5-25.6-17.5c-4.7,0-11.5,0.6-20.6,1.8s-16.1,1.8-20.6,1.8c-28.4,0-42.5-11.2-42.5-33.9c0-6.5,2.4-12.8,7.1-19
			c4.7-6.2,10.2-10.8,16.5-13.8c-20.2-14.5-30.1-35.1-30.1-61.8c0-21,7-38.4,20.7-52.1c13.9-13.8,31-20.6,51.1-20.6
			c15.9,0,29.1,3.3,39.8,9.9l16.2-20.9l28.6,28.8l-19.6,15.9c6.8,11.5,10.2,25,10.2,40.6c0,22.3-6.1,40.2-18.5,53.6
			c-12.4,13.4-27.7,20-46.4,20c-3,0-7-0.3-11.9-0.9l-6.7-1.1c-0.7,0-3.7,1.3-8.8,4c-5.1,2.7-7.7,5.4-7.7,8.1c0,4.8,3.8,7.4,11.4,7.4
			c3.4,0,9.1-0.9,17.2-2.7c8.1-1.8,14.9-2.7,20.6-2.7c40.1,0,60.2,17.9,60.2,53.7c0,19.7-8.1,35.4-24.1,46.6
			c-16.1,11.2-35.4,16.9-58.1,16.9C1379.5,729.9,1355.1,721.1,1333.2,703.3z M1374.4,525.5c0,11.6,2.8,20.9,8.7,28
			s13.6,10.5,23.3,10.5s17.3-3.4,22.6-10.2c5.3-6.8,8-16.2,8-28.3c0-9.9-2.8-18.3-8.5-25.1c-5.7-6.8-12.9-10.2-22-10.2
			c-9.5,0-17.2,3.3-23.2,9.9C1377.4,506.6,1374.4,515.1,1374.4,525.5z"/>
		<path fill="#0B57A0" d="M1673.7,568.8h-126.1c0.7,15.6,5.5,27.8,14.5,36.5c8.9,8.7,20.9,13.1,35.9,13.1c18.8,0,33.1-5.4,42.9-16.3
			l16.1,34.9c-14.5,13.1-36.2,19.6-64.9,19.6c-27,0-48.3-8.8-63.9-26.3c-15.6-17.5-23.6-42-23.6-73.4c0-31,8.7-56,25.9-75.1
			c17.2-19.2,37.8-28.8,61.9-28.8c25.6,0,46.2,8.5,61.6,25.4c15.5,17,23.3,38.6,23.3,64.9C1677.1,548.9,1676,557.5,1673.7,568.8z
			 M1549,534.3h86.8c-2.8-28.7-17.2-43-42.9-43C1569.3,491.3,1554.7,505.6,1549,534.3z"/>
	</g>
</g>
</svg>
