<svg xmlns="http://www.w3.org/2000/svg" xmlns:xlink="http://www.w3.org/1999/xlink" viewBox="0 0 200.59 77.19"><defs><style>.cls-1{fill:#1e4c96;}.cls-2{fill:url(#名称未設定グラデーション_56);}</style><linearGradient id="名称未設定グラデーション_56" x1="103.14" y1="38.6" x2="179.22" y2="38.6" gradientUnits="userSpaceOnUse"><stop offset="0" stop-color="#1d50a2"/><stop offset="1" stop-color="#0089ce"/></linearGradient></defs><title>ventus_logo_color</title><g id="レイヤー_2" data-name="レイヤー 2"><g id="レイヤー_1-2" data-name="レイヤー 1"><path class="cls-1" d="M.24,57.36h2a.24.24,0,0,1,.23.17L5.82,67.81a.72.72,0,0,0,.76.58.8.8,0,0,0,.77-.58l3.31-10.28a.24.24,0,0,1,.23-.17h2a.23.23,0,0,1,.23.3l-3.52,11a3,3,0,0,1-1.14,1.53,3.1,3.1,0,0,1-1.9.61,3.2,3.2,0,0,1-1.91-.61,3,3,0,0,1-1.13-1.53L0,57.66A.23.23,0,0,1,.24,57.36Z"/><path class="cls-1" d="M23.31,64.71H35.37V64a6.36,6.36,0,0,0-2.18-4.9,7.46,7.46,0,0,0-2.41-1.45,8.49,8.49,0,0,0-5.74,0,7.46,7.46,0,0,0-2.41,1.45,6.59,6.59,0,0,0,0,9.79A7.41,7.41,0,0,0,25,70.28a8.07,8.07,0,0,0,2.87.51q4.68,0,6.83-2.79a.24.24,0,0,0-.08-.34l-1.8-1a.24.24,0,0,0-.31.06,4.43,4.43,0,0,1-1.77,1.36,6.5,6.5,0,0,1-2.69.54,5.33,5.33,0,0,1-3.38-1.12A4.5,4.5,0,0,1,23.07,65,.24.24,0,0,1,23.31,64.71Zm9-2.14H23.52a.23.23,0,0,1-.23-.31A4.67,4.67,0,0,1,25,60.17a5.12,5.12,0,0,1,5.9,0,4.6,4.6,0,0,1,1.67,2.08.24.24,0,0,1-.23.31"/><path class="cls-1" d="M46,70.54h-2a.23.23,0,0,1-.24-.23v-8a4.79,4.79,0,0,1,1.65-3.71,6.34,6.34,0,0,1,8.17,0,4.83,4.83,0,0,1,1.66,3.71v8a.23.23,0,0,1-.24.23h-2a.23.23,0,0,1-.24-.23V62.52A3.27,3.27,0,0,0,51.59,60a3.3,3.3,0,0,0-4.43.11,2.85,2.85,0,0,0-.95,2.16v8A.23.23,0,0,1,46,70.54Z"/><path class="cls-1" d="M66.4,53.94v3.2a.23.23,0,0,0,.24.22h3.54a.24.24,0,0,1,.24.23v1.68a.23.23,0,0,1-.24.23H66.64a.23.23,0,0,0-.24.23v7.14A1.35,1.35,0,0,0,67,68a2.16,2.16,0,0,0,1.41.44h1.81a.24.24,0,0,1,.24.23v1.68a.23.23,0,0,1-.24.23H68.09a4.47,4.47,0,0,1-3-1,3.32,3.32,0,0,1-1.16-2.6v-13a.23.23,0,0,1,.24-.22h2A.23.23,0,0,1,66.4,53.94Z"/><path class="cls-1" d="M87.41,57.36h2a.24.24,0,0,1,.24.23v8A4.8,4.8,0,0,1,88,69.29a6.31,6.31,0,0,1-8.17,0,4.79,4.79,0,0,1-1.65-3.71v-8a.24.24,0,0,1,.24-.23h2a.24.24,0,0,1,.24.23v8a2.89,2.89,0,0,0,.94,2.17,3.2,3.2,0,0,0,2.19.9,3.38,3.38,0,0,0,2.44-1,2.89,2.89,0,0,0,.87-2.1v-8A.24.24,0,0,1,87.41,57.36Z"/><path class="cls-1" d="M104.94,65.89l-4.49-1.81A3.51,3.51,0,0,1,98,60.58a3,3,0,0,1,1-2.27,3.65,3.65,0,0,1,2.55-1h6.09a.24.24,0,0,1,.24.23v1.68a.23.23,0,0,1-.24.23h-5.93a1.33,1.33,0,0,0-.88.31,1,1,0,0,0-.36.77,1.44,1.44,0,0,0,.26.92,2.09,2.09,0,0,0,.87.59L106,63.85a3.61,3.61,0,0,1,2.62,3.47,2.89,2.89,0,0,1-1.11,2.29,4.07,4.07,0,0,1-2.73.93H98.24a.23.23,0,0,1-.23-.23V68.63a.23.23,0,0,1,.23-.23h6.37a1.75,1.75,0,0,0,1.06-.31.91.91,0,0,0,.43-.77A1.53,1.53,0,0,0,104.94,65.89Z"/><path class="cls-2" d="M165.24,63.22h0c9-9.94,23.77-27.83,24.1-35.23.45-9.89-4.67-11.31-6.64-11.94,0,0-14.47-4.39-22,12.4a45.09,45.09,0,0,0-1.35,33.72S149.5,71.12,144,71s-7-11.68-9.91-24.63C132.45,39.1,130.73-1.84,89.81.06c0,0,26.47,41.75,37.12,66.69,8.29,19.41,28.39,6.46,32,3.09.54-.49,1.56-1.53,2.9-3l-.05.05s4,10.29,18.37,9.37,20.5-9.43,20.4-18.76C200.59,57.54,175.45,77.06,165.24,63.22Zm-1.55-24.31A13.5,13.5,0,0,1,171,31.59c2.39-1,5.49.13,5.82,2.7a11.89,11.89,0,0,1-.21,5.36c-1.22,4.84-13.2,19.65-13.2,19.65C162.39,54.55,160.23,46.85,163.69,38.91Z"/></g></g></svg>