<svg id="グループ_1177" data-name="グループ 1177" xmlns="http://www.w3.org/2000/svg" xmlns:xlink="http://www.w3.org/1999/xlink" width="409.196" height="86.117" viewBox="0 0 409.196 86.117">
  <defs>
    <style>
      .cls-1 {
        fill: #475d68;
      }

      .cls-2 {
        fill: url(#linear-gradient);
      }

      .cls-3 {
        fill: url(#linear-gradient-2);
      }
    </style>
    <linearGradient id="linear-gradient" x1="0.5" y1="-0.033" x2="0.5" y2="0.685" gradientUnits="objectBoundingBox">
      <stop offset="0.049" stop-color="#0082d5"/>
      <stop offset="1" stop-color="#00a1c2"/>
    </linearGradient>
    <linearGradient id="linear-gradient-2" x1="0.5" y1="-0.789" x2="0.5" y2="0.994" gradientUnits="objectBoundingBox">
      <stop offset="0" stop-color="#4cbdf0"/>
      <stop offset="1" stop-color="#a0d6db"/>
    </linearGradient>
  </defs>
  <g id="グループ_594" data-name="グループ 594" transform="translate(0 0)">
    <g id="グループ_592" data-name="グループ 592" transform="translate(105.309 17.717)">
      <path id="パス_21875" data-name="パス 21875" class="cls-1" d="M394.532,217.649l8.852-47.227a1.223,1.223,0,0,0-1.2-1.449h-9.635a1.225,1.225,0,0,0-1.2,1L382.49,217.2a1.224,1.224,0,0,0,1.2,1.451h9.637A1.225,1.225,0,0,0,394.532,217.649Z" transform="translate(-369.886 -150.393)"/>
      <path id="パス_21876" data-name="パス 21876" class="cls-1" d="M432.7,192.764h8.768a1.224,1.224,0,0,0,1.225-1.225V173.019a1.225,1.225,0,0,0-1.534-1.184l-8.768,2.284a1.223,1.223,0,0,0-.916,1.186v16.235A1.224,1.224,0,0,0,432.7,192.764Z" transform="translate(-327.244 -147.938)"/>
      <path id="パス_21877" data-name="パス 21877" class="cls-1" d="M423.315,192.764h8.769a1.224,1.224,0,0,0,1.225-1.225V173.019a1.225,1.225,0,0,0-1.534-1.184l-8.769,2.284a1.223,1.223,0,0,0-.914,1.186v16.235A1.224,1.224,0,0,0,423.315,192.764Z" transform="translate(-335.405 -147.938)"/>
      <path id="パス_21878" data-name="パス 21878" class="cls-1" d="M529.531,159.074l-9.686,2.34a1.224,1.224,0,0,0-.937,1.189v63.34a1.224,1.224,0,0,0,1.225,1.225h12.856a1.228,1.228,0,0,0,1.021-.548L554.835,195.2a1.224,1.224,0,0,0-1.021-1.9H543.167a1.223,1.223,0,0,0-1.021.548l-8.855,13.363a1.225,1.225,0,0,1-2.246-.677V160.264A1.224,1.224,0,0,0,529.531,159.074Z" transform="translate(-251.154 -159.038)"/>
      <path id="パス_21879" data-name="パス 21879" class="cls-1" d="M513.95,226.289l8.044-44.042a1.234,1.234,0,0,0,.021-.221l0-21.762a1.226,1.226,0,0,0-1.513-1.191l-9.688,2.341a1.224,1.224,0,0,0-.937,1.189l0,19.519a1.239,1.239,0,0,1-.021.221l-7.947,43.5a1.226,1.226,0,0,0,1.2,1.446h9.637A1.225,1.225,0,0,0,513.95,226.289Z" transform="translate(-265.97 -159.039)"/>
      <path id="パス_21880" data-name="パス 21880" class="cls-1" d="M450.493,215.392,458.235,173a1.223,1.223,0,0,0-1.2-1.444h-9.637a1.225,1.225,0,0,0-1.206,1l-7.741,42.387a1.225,1.225,0,0,0,1.2,1.446h9.637A1.225,1.225,0,0,0,450.493,215.392Z" transform="translate(-321.191 -148.142)"/>
      <path id="パス_21881" data-name="パス 21881" class="cls-1" d="M484.1,183.73l-5.781,31.648a1.225,1.225,0,0,0,1.2,1.446h9.637a1.225,1.225,0,0,0,1.2-1l5.944-32.529a1.225,1.225,0,0,1,1.2-1h22.566a1.225,1.225,0,0,0,1.2-1l1.646-8.769a1.225,1.225,0,0,0-1.2-1.449H462.051a1.225,1.225,0,0,0-1.2,1l-1.644,8.768a1.224,1.224,0,0,0,1.2,1.451h22.486A1.225,1.225,0,0,1,484.1,183.73Z" transform="translate(-303.129 -148.57)"/>
      <path id="パス_21882" data-name="パス 21882" class="cls-1" d="M465.093,160.857l-1.646,8.768a1.226,1.226,0,0,0,1.2,1.451H513.6a1.225,1.225,0,0,0,1.2-1l1.646-8.768a1.227,1.227,0,0,0-1.2-1.451H466.3A1.225,1.225,0,0,0,465.093,160.857Z" transform="translate(-299.436 -158.325)"/>
      <path id="パス_21883" data-name="パス 21883" class="cls-1" d="M430.559,172.573l-1.76,10.249a1.226,1.226,0,0,1-1.208,1.017H416.127a1.223,1.223,0,0,0-1.2,1l-1.646,8.769a1.224,1.224,0,0,0,1.2,1.449h23.31A1.226,1.226,0,0,0,439,194.039l5.611-32.684a1.227,1.227,0,0,0-1.208-1.433h-64.8a1.223,1.223,0,0,0-1.2,1l-1.644,8.769a1.223,1.223,0,0,0,1.2,1.449h52.387A1.227,1.227,0,0,1,430.559,172.573Z" transform="translate(-375.741 -158.269)"/>
    </g>
    <g id="グループ_593" data-name="グループ 593">
      <path id="パス_21884" data-name="パス 21884" class="cls-2" d="M363.844,150.666l-43.986,80.909h91.674l-43.984-80.909A2.109,2.109,0,0,0,363.844,150.666Z" transform="translate(-319.061 -149.565)"/>
      <path id="パス_21885" data-name="パス 21885" class="cls-3" d="M412.442,216.81l-12.6-23.174a3.012,3.012,0,0,0-2.646-1.575H376.223a.9.9,0,0,1-.628-1.543,13.363,13.363,0,0,0,3.868-10.2,13.417,13.417,0,0,0-26.811.772,13.346,13.346,0,0,0,3.89,9.433.9.9,0,0,1-.63,1.541H334.936a3.012,3.012,0,0,0-2.646,1.575l-12.6,23.174a2.11,2.11,0,0,0,1.853,3.118H410.59A2.109,2.109,0,0,0,412.442,216.81Z" transform="translate(-319.432 -133.81)"/>
    </g>
  </g>
</svg>
