<?xml version="1.0" encoding="UTF-8"?><svg id="_レイヤー_2" xmlns="http://www.w3.org/2000/svg" xmlns:xlink="http://www.w3.org/1999/xlink" viewBox="0 0 208.31 45.29"><defs><style>.cls-1{fill:#4d4d4d;font-family:BodoniSvtyTwoOSITCTT-Book, 'Bodoni 72 Oldstyle';font-size:36px;}.cls-2{fill:url(#_名称未設定グラデーション_37);}.cls-3{fill:url(#_名称未設定グラデーション_23);}</style><linearGradient id="_名称未設定グラデーション_37" x1="180.27" y1="21.15" x2="208.31" y2="21.15" gradientUnits="userSpaceOnUse"><stop offset="0" stop-color="#f0f"/><stop offset="1" stop-color="#ffd21e"/></linearGradient><linearGradient id="_名称未設定グラデーション_23" x1="158.94" y1="25.45" x2="197.52" y2="25.45" gradientUnits="userSpaceOnUse"><stop offset="0" stop-color="aqua"/><stop offset="1" stop-color="#f0f"/></linearGradient></defs><g id="_レイヤー_1-2"><path class="cls-2" d="M183.89,0l-2.91,5.04.15.27h0s6.74,11.66,6.74,11.66h0s.05.1.05.1h-.11l-2.71,4.7-4.84,8.38h15.21l7.02,12.15h5.81L183.89,0ZM201.1,30.14l-10.4-18.02h0s10.41,18.02,10.41,18.02h-.01Z"/><polygon class="cls-3" points="167.97 37.29 181.31 13.99 178.23 8.61 158.94 42.3 197.52 42.3 194.65 37.29 167.97 37.29"/><text class="cls-1" transform="translate(0 35.71)"><tspan x="0" y="0">TricoLogic</tspan></text></g></svg>